<svg xmlns="http://www.w3.org/2000/svg" width="106.81" height="29" viewBox="0 0 106.81 29">
  <g id="_50Fifty_Logo" data-name="50Fifty Logo" transform="translate(-213.51 -115.69)">
    <g id="Group_50" data-name="Group 50" transform="translate(213.51 115.695)">
      <path id="Path_42" data-name="Path 42" d="M322.414,128.134a12.684,12.684,0,0,1-12.9,12.426,11.876,11.876,0,0,1-9.437-3.964,12.676,12.676,0,0,1-3.46-8.459,12.026,12.026,0,0,1,3.722-8.608,12.316,12.316,0,0,1,9.175-3.818,12.128,12.128,0,0,1,9.268,3.882A12.253,12.253,0,0,1,322.414,128.134Zm-9.363,0q0-2.742-.113-4.693a32.953,32.953,0,0,0-.432-3.784,5.333,5.333,0,0,0-.978-2.577,2.555,2.555,0,0,0-2.011-.744,2.59,2.59,0,0,0-1.974.777,4.433,4.433,0,0,0-1,2.363q-.263,1.587-.414,3.967t-.149,4.693q0,2.545.131,4.611a38.79,38.79,0,0,0,.432,3.882,5.232,5.232,0,0,0,.958,2.561,2.552,2.552,0,0,0,2.011.744,2.59,2.59,0,0,0,1.974-.777,4.33,4.33,0,0,0,.978-2.345q.243-1.568.414-4.065C313,131.079,313.052,129.544,313.052,128.134Z" transform="translate(-275.225 -115.71)" fill="#ea0029"/>
      <path id="Path_43" data-name="Path 43" d="M234.166,146.141a12.39,12.39,0,0,0-7.548-2.816,20.063,20.063,0,0,0-5.594.644,9.521,9.521,0,0,0-3.957,2.4l1.272-5.725h-1.38l-1.949,8.853,1.225.077a6.47,6.47,0,0,1,.566-1.48,10.02,10.02,0,0,1,1.7-2.026,5.461,5.461,0,0,1,4.016-1.326,4.414,4.414,0,0,1,4.268,2.886,16.02,16.02,0,0,1,1.305,6.665,14.64,14.64,0,0,1-1.053,5.926,3.947,3.947,0,0,1-3.977,2.379,4.161,4.161,0,0,1-1.7-.371,1.174,1.174,0,0,1-.839-1.071c0-.337.414-.922,1.249-1.753a4.33,4.33,0,0,0,1.249-3.2,3.723,3.723,0,0,0-1.48-3.1,5.732,5.732,0,0,0-3.625-1.151,4.427,4.427,0,0,0-3.079,1.207A3.735,3.735,0,0,0,213.51,156a6.234,6.234,0,0,0,2.708,5.167,11.294,11.294,0,0,0,7,2.047,18.015,18.015,0,0,0,9.96-2.767,8.766,8.766,0,0,0,4.307-7.8A7.788,7.788,0,0,0,234.166,146.141Z" transform="translate(-213.51 -134.222)" fill="#ea0029"/>
    </g>
    <g id="Group_51" data-name="Group 51" transform="translate(217.246 115.69)">
      <path id="Path_44" data-name="Path 44" d="M232.535,116.866a.115.115,0,0,1-.085.031H230.3a.062.062,0,0,0-.057.044l-.149.687c-.008.031,0,.044.033.044h1.339a.076.076,0,0,1,.067.031.1.1,0,0,1,.01.082l-.214.971a.145.145,0,0,1-.046.082.119.119,0,0,1-.085.031h-1.339a.043.043,0,0,0-.049.044l-.414,1.9a.148.148,0,0,1-.049.082.132.132,0,0,1-.09.031h-1.143a.085.085,0,0,1-.075-.031.1.1,0,0,1-.01-.082l1.1-5.01a.145.145,0,0,1,.046-.082.115.115,0,0,1,.085-.031h3.455a.076.076,0,0,1,.067.031.1.1,0,0,1,.01.082l-.214.978A.157.157,0,0,1,232.535,116.866Z" transform="translate(-228.024 -115.69)" fill="#24272a"/>
      <path id="Path_45" data-name="Path 45" d="M244.358,120.9a.1.1,0,0,1-.01-.082l1.1-5.01a.145.145,0,0,1,.046-.082.115.115,0,0,1,.085-.031h1.143a.085.085,0,0,1,.075.031.1.1,0,0,1,.01.082l-1.094,5.01a.148.148,0,0,1-.049.082.132.132,0,0,1-.09.031h-1.143A.088.088,0,0,1,244.358,120.9Z" transform="translate(-240.142 -115.69)" fill="#24272a"/>
      <path id="Path_46" data-name="Path 46" d="M257.065,116.866a.115.115,0,0,1-.085.031h-2.152a.062.062,0,0,0-.057.044l-.149.687c-.008.031,0,.044.033.044h1.339a.077.077,0,0,1,.067.031.1.1,0,0,1,.01.082l-.214.971a.145.145,0,0,1-.046.082.119.119,0,0,1-.085.031h-1.339a.043.043,0,0,0-.049.044l-.414,1.9a.148.148,0,0,1-.049.082.132.132,0,0,1-.09.031h-1.143a.085.085,0,0,1-.075-.031.1.1,0,0,1-.01-.082l1.1-5.01a.145.145,0,0,1,.046-.082.115.115,0,0,1,.085-.031h3.455a.076.076,0,0,1,.067.031.1.1,0,0,1,.01.082l-.214.978A.13.13,0,0,1,257.065,116.866Z" transform="translate(-246.239 -115.69)" fill="#24272a"/>
      <path id="Path_47" data-name="Path 47" d="M276.581,115.731a.1.1,0,0,1,.01.082l-.214.986a.145.145,0,0,1-.046.082.119.119,0,0,1-.085.031h-1.21a.062.062,0,0,0-.057.044l-.842,3.864a.148.148,0,0,1-.049.082.132.132,0,0,1-.09.031h-1.143a.085.085,0,0,1-.075-.031.1.1,0,0,1-.01-.082l.85-3.864c0-.031-.008-.044-.033-.044h-1.174a.085.085,0,0,1-.075-.031.1.1,0,0,1-.01-.082l.214-.986a.148.148,0,0,1,.049-.082.132.132,0,0,1,.09-.031h3.836A.078.078,0,0,1,276.581,115.731Z" transform="translate(-260.919 -115.697)" fill="#24272a"/>
      <path id="Path_48" data-name="Path 48" d="M291.274,120.9a.1.1,0,0,1-.01-.082l.36-1.645a.129.129,0,0,0,0-.059l-.754-3.267a.079.079,0,0,1,0-.044.093.093,0,0,1,.106-.09h1.249a.1.1,0,0,1,.111.09l.293,1.771q.012.031.031.031c.013,0,.023-.01.028-.031l1.068-1.771a.167.167,0,0,1,.149-.09h1.256c.059,0,.088.023.082.067a.179.179,0,0,1-.028.067L293,119.111a.179.179,0,0,0-.028.059l-.36,1.645a.148.148,0,0,1-.049.082.122.122,0,0,1-.082.031h-1.143A.092.092,0,0,1,291.274,120.9Z" transform="translate(-274.687 -115.705)" fill="#24272a"/>
    </g>
    <g id="Group_52" data-name="Group 52" transform="translate(266.716 120.55)">
      <path id="Path_49" data-name="Path 49" d="M420.19,141.553v-6.6a.085.085,0,0,1,.1-.1h.734a.085.085,0,0,1,.1.1V140.8a.034.034,0,0,0,.039.039h3.331a.085.085,0,0,1,.1.1v.61a.086.086,0,0,1-.1.1h-4.2A.084.084,0,0,1,420.19,141.553Z" transform="translate(-420.19 -134.785)" fill="#24272a"/>
      <path id="Path_50" data-name="Path 50" d="M442.433,141.45a2.013,2.013,0,0,1-.834-.785,2.25,2.25,0,0,1-.3-1.169v-4.538a.085.085,0,0,1,.1-.1h.734a.087.087,0,0,1,.1.1v4.557a1.357,1.357,0,0,0,.4,1.019,1.447,1.447,0,0,0,1.048.389,1.424,1.424,0,0,0,1.043-.389,1.365,1.365,0,0,0,.4-1.019v-4.557a.085.085,0,0,1,.1-.1h.734a.085.085,0,0,1,.1.1V139.5a2.3,2.3,0,0,1-.293,1.169,1.984,1.984,0,0,1-.829.785,2.938,2.938,0,0,1-2.484,0Z" transform="translate(-435.866 -134.785)" fill="#24272a"/>
      <path id="Path_51" data-name="Path 51" d="M463.807,141.608a.077.077,0,0,1,.01-.082l1.987-3.249a.05.05,0,0,0,0-.059l-1.987-3.249a.146.146,0,0,1-.018-.059c0-.039.028-.059.088-.059h.8a.146.146,0,0,1,.116.067l1.555,2.569a.044.044,0,0,0,.057,0l1.555-2.569a.133.133,0,0,1,.116-.067h.79a.08.08,0,0,1,.077.033.077.077,0,0,1-.01.082l-1.98,3.259a.115.115,0,0,0,0,.059l1.98,3.238a.146.146,0,0,1,.018.059c0,.039-.028.059-.088.059h-.79a.139.139,0,0,1-.116-.067l-1.555-2.559a.03.03,0,0,0-.057,0l-1.555,2.559a.136.136,0,0,1-.116.067h-.8A.08.08,0,0,1,463.807,141.608Z" transform="translate(-452.573 -134.778)" fill="#24272a"/>
      <path id="Path_52" data-name="Path 52" d="M489.113,141.45a2.013,2.013,0,0,1-.834-.785,2.25,2.25,0,0,1-.3-1.169v-4.538a.085.085,0,0,1,.1-.1h.734a.087.087,0,0,1,.1.1v4.557a1.357,1.357,0,0,0,.4,1.019,1.447,1.447,0,0,0,1.048.389,1.424,1.424,0,0,0,1.043-.389,1.365,1.365,0,0,0,.4-1.019v-4.557a.085.085,0,0,1,.1-.1h.734a.085.085,0,0,1,.1.1V139.5a2.3,2.3,0,0,1-.293,1.169,1.984,1.984,0,0,1-.829.785,2.938,2.938,0,0,1-2.484,0Z" transform="translate(-470.529 -134.785)" fill="#24272a"/>
      <path id="Path_53" data-name="Path 53" d="M516.033,141.581l-1.352-2.9a.039.039,0,0,0-.039-.028h-1.39a.034.034,0,0,0-.039.039v2.86a.086.086,0,0,1-.1.1h-.734a.085.085,0,0,1-.1-.1v-6.6a.085.085,0,0,1,.1-.1h2.6A2.073,2.073,0,0,1,516,135.1a1.693,1.693,0,0,1,.68.68,2.067,2.067,0,0,1,.242,1.009,1.858,1.858,0,0,1-.353,1.148,1.727,1.727,0,0,1-.981.636c-.026.013-.034.028-.018.049l1.4,2.909a.125.125,0,0,1,.01.049c0,.046-.026.067-.077.067h-.762A.1.1,0,0,1,516.033,141.581Zm-2.819-5.877v2.173a.034.034,0,0,0,.039.039h1.612a1.121,1.121,0,0,0,.821-.306,1.089,1.089,0,0,0,.309-.811,1.067,1.067,0,0,0-1.13-1.135h-1.612A.037.037,0,0,0,513.214,135.7Z" transform="translate(-488.581 -134.785)" fill="#24272a"/>
      <path id="Path_54" data-name="Path 54" d="M534.808,141.55v-2.724c0-.026,0-.041-.01-.049l-2.008-3.792a.125.125,0,0,1-.01-.049c0-.046.026-.067.077-.067h.79a.117.117,0,0,1,.116.067l1.478,2.842a.031.031,0,0,0,.057,0l1.478-2.842a.111.111,0,0,1,.116-.067h.8a.082.082,0,0,1,.072.033.07.07,0,0,1-.005.082l-2.018,3.792a.084.084,0,0,0-.01.049v2.724a.086.086,0,0,1-.1.1H534.9A.086.086,0,0,1,534.808,141.55Z" transform="translate(-503.796 -134.793)" fill="#24272a"/>
      <path id="Path_55" data-name="Path 55" d="M564.435,141.245a2.006,2.006,0,0,1-.832-.785,2.273,2.273,0,0,1-.293-1.169v-2.513a2.24,2.24,0,0,1,.293-1.158,2,2,0,0,1,.832-.775,2.633,2.633,0,0,1,1.23-.275,2.692,2.692,0,0,1,1.225.268,2,2,0,0,1,.826.752,2.131,2.131,0,0,1,.293,1.125v.01a.1.1,0,0,1-.028.077.084.084,0,0,1-.067.028l-.734.039c-.064,0-.1-.021-.1-.059v-.059a1.334,1.334,0,0,0-.386-1,1.6,1.6,0,0,0-2.07,0,1.328,1.328,0,0,0-.391,1v2.579a1.328,1.328,0,0,0,.391,1,1.429,1.429,0,0,0,1.037.378,1.413,1.413,0,0,0,1.032-.378,1.334,1.334,0,0,0,.386-1v-.021c0-.059.031-.088.1-.088l.734.039c.064,0,.1.015.1.049v.049a2.156,2.156,0,0,1-.293,1.13,2.006,2.006,0,0,1-.826.762,2.66,2.66,0,0,1-1.225.27A2.626,2.626,0,0,1,564.435,141.245Z" transform="translate(-526.466 -134.57)" fill="#24272a"/>
      <path id="Path_56" data-name="Path 56" d="M589.154,141.579l-.348-1.135a.038.038,0,0,0-.039-.028h-2.713a.041.041,0,0,0-.039.028l-.348,1.135a.113.113,0,0,1-.116.077h-.783c-.072,0-.1-.036-.077-.106l2.113-6.6a.113.113,0,0,1,.116-.077h.965a.115.115,0,0,1,.116.077l2.134,6.6.01.039c0,.046-.028.067-.087.067h-.79A.115.115,0,0,1,589.154,141.579Zm-2.891-1.915a.045.045,0,0,0,.033.015h2.219a.045.045,0,0,0,.033-.015.027.027,0,0,0,.005-.033l-1.12-3.6a.03.03,0,0,0-.057,0l-1.12,3.6A.031.031,0,0,0,586.263,139.663Z" transform="translate(-542.341 -134.793)" fill="#24272a"/>
      <path id="Path_57" data-name="Path 57" d="M613.933,141.581l-1.352-2.9a.039.039,0,0,0-.039-.028h-1.39a.034.034,0,0,0-.039.039v2.86a.086.086,0,0,1-.1.1h-.734a.085.085,0,0,1-.1-.1v-6.6a.085.085,0,0,1,.1-.1h2.6a2.073,2.073,0,0,1,1.019.242,1.693,1.693,0,0,1,.68.68,2.067,2.067,0,0,1,.242,1.009,1.858,1.858,0,0,1-.353,1.148,1.727,1.727,0,0,1-.981.636c-.026.013-.034.028-.018.049l1.4,2.909a.126.126,0,0,1,.01.049c0,.046-.026.067-.077.067h-.762A.1.1,0,0,1,613.933,141.581Zm-2.819-5.877v2.173a.034.034,0,0,0,.039.039h1.612a1.121,1.121,0,0,0,.821-.306,1.089,1.089,0,0,0,.309-.811,1.067,1.067,0,0,0-1.13-1.135h-1.612A.037.037,0,0,0,611.114,135.7Z" transform="translate(-561.278 -134.785)" fill="#24272a"/>
      <path id="Path_58" data-name="Path 58" d="M420.19,173.463v-6.6a.085.085,0,0,1,.1-.1h.734a.085.085,0,0,1,.1.1v6.6a.086.086,0,0,1-.1.1h-.734A.086.086,0,0,1,420.19,173.463Z" transform="translate(-420.19 -158.481)" fill="#24272a"/>
      <path id="Path_59" data-name="Path 59" d="M434.02,166.78h.734a.085.085,0,0,1,.1.1v6.6a.086.086,0,0,1-.1.1h-.705a.139.139,0,0,1-.116-.067l-3.022-4.956c-.005-.021-.015-.028-.028-.023s-.018.015-.018.033l.01,4.917a.086.086,0,0,1-.1.1h-.734a.085.085,0,0,1-.1-.1v-6.6a.085.085,0,0,1,.1-.1h.713a.139.139,0,0,1,.116.067l3.012,4.956c.005.018.015.028.028.023s.021-.015.021-.033l-.01-4.917A.083.083,0,0,1,434.02,166.78Z" transform="translate(-427.437 -158.488)" fill="#24272a"/>
      <path id="Path_60" data-name="Path 60" d="M454.993,173.174a1.891,1.891,0,0,1-.839-.659,1.723,1.723,0,0,1-.293-1v-.281a.085.085,0,0,1,.1-.1h.705a.087.087,0,0,1,.1.1v.232a.975.975,0,0,0,.425.813,1.9,1.9,0,0,0,1.169.319,1.536,1.536,0,0,0,1-.281.915.915,0,0,0,.337-.736.792.792,0,0,0-.172-.515,1.7,1.7,0,0,0-.507-.394,10.3,10.3,0,0,0-.97-.432,9.388,9.388,0,0,1-1.115-.494,2.081,2.081,0,0,1-.68-.587,1.494,1.494,0,0,1-.27-.916,1.581,1.581,0,0,1,.595-1.308,2.5,2.5,0,0,1,1.606-.476,3.027,3.027,0,0,1,1.254.242,1.929,1.929,0,0,1,.834.68,1.768,1.768,0,0,1,.293,1.009v.193a.085.085,0,0,1-.1.1h-.723a.087.087,0,0,1-.1-.1v-.144a1.048,1.048,0,0,0-.4-.839,1.669,1.669,0,0,0-1.1-.335,1.515,1.515,0,0,0-.927.247.836.836,0,0,0-.327.713.794.794,0,0,0,.165.523,1.405,1.405,0,0,0,.487.363c.216.106.546.245.989.412a10.606,10.606,0,0,1,1.11.5,2.13,2.13,0,0,1,.705.6,1.513,1.513,0,0,1,.281.927A1.641,1.641,0,0,1,458,172.9a2.671,2.671,0,0,1-1.714.5A3.2,3.2,0,0,1,454.993,173.174Z" transform="translate(-445.192 -158.251)" fill="#24272a"/>
      <path id="Path_61" data-name="Path 61" d="M478.093,173.36a2.013,2.013,0,0,1-.834-.785,2.25,2.25,0,0,1-.3-1.169v-4.538a.085.085,0,0,1,.1-.1h.734a.087.087,0,0,1,.1.1v4.557a1.357,1.357,0,0,0,.4,1.019,1.447,1.447,0,0,0,1.048.389,1.424,1.424,0,0,0,1.043-.389,1.365,1.365,0,0,0,.4-1.019v-4.557a.085.085,0,0,1,.1-.1h.734a.085.085,0,0,1,.1.1v4.538a2.3,2.3,0,0,1-.293,1.169,1.983,1.983,0,0,1-.829.785,2.655,2.655,0,0,1-1.241.275A2.627,2.627,0,0,1,478.093,173.36Z" transform="translate(-462.346 -158.481)" fill="#24272a"/>
      <path id="Path_62" data-name="Path 62" d="M505,173.491l-1.352-2.9a.039.039,0,0,0-.039-.028h-1.39a.034.034,0,0,0-.039.039v2.86a.086.086,0,0,1-.1.1h-.734a.085.085,0,0,1-.1-.1v-6.6a.085.085,0,0,1,.1-.1h2.6a2.073,2.073,0,0,1,1.019.242,1.693,1.693,0,0,1,.68.68,2.039,2.039,0,0,1,.242,1.009,1.858,1.858,0,0,1-.353,1.148,1.727,1.727,0,0,1-.981.636c-.026.013-.033.028-.018.049l1.4,2.909a.126.126,0,0,1,.01.049c0,.046-.026.067-.077.067h-.762A.106.106,0,0,1,505,173.491Zm-2.819-5.877v2.173a.034.034,0,0,0,.039.039h1.612a1.121,1.121,0,0,0,.821-.306,1.088,1.088,0,0,0,.309-.811,1.067,1.067,0,0,0-1.13-1.135h-1.612A.037.037,0,0,0,502.184,167.614Z" transform="translate(-480.39 -158.481)" fill="#24272a"/>
      <path id="Path_63" data-name="Path 63" d="M527.924,173.489l-.348-1.135a.038.038,0,0,0-.039-.028h-2.713a.041.041,0,0,0-.039.028l-.348,1.135a.113.113,0,0,1-.116.077h-.783c-.072,0-.1-.036-.077-.106l2.113-6.6a.113.113,0,0,1,.116-.077h.965a.115.115,0,0,1,.116.077l2.134,6.6.01.039c0,.046-.028.067-.088.067h-.79A.115.115,0,0,1,527.924,173.489Zm-2.891-1.915a.045.045,0,0,0,.033.015h2.219a.045.045,0,0,0,.033-.015.027.027,0,0,0,.005-.033l-1.12-3.6a.03.03,0,0,0-.057,0l-1.12,3.6A.027.027,0,0,0,525.033,171.573Z" transform="translate(-496.873 -158.488)" fill="#24272a"/>
      <path id="Path_64" data-name="Path 64" d="M553.03,166.78h.734a.085.085,0,0,1,.1.1v6.6a.086.086,0,0,1-.1.1h-.705a.139.139,0,0,1-.116-.067l-3.022-4.956c-.005-.021-.015-.028-.028-.023s-.018.015-.018.033l.01,4.917a.086.086,0,0,1-.1.1h-.734a.085.085,0,0,1-.1-.1v-6.6a.085.085,0,0,1,.1-.1h.713a.139.139,0,0,1,.116.067l3.012,4.956c.005.018.015.028.028.023a.032.032,0,0,0,.021-.033l-.01-4.917C552.935,166.811,552.966,166.78,553.03,166.78Z" transform="translate(-515.811 -158.488)" fill="#24272a"/>
      <path id="Path_65" data-name="Path 65" d="M574.595,173.155a2.006,2.006,0,0,1-.832-.785,2.273,2.273,0,0,1-.293-1.169v-2.513a2.24,2.24,0,0,1,.293-1.158,2,2,0,0,1,.832-.775,2.634,2.634,0,0,1,1.231-.275,2.692,2.692,0,0,1,1.225.268,2,2,0,0,1,.826.752,2.131,2.131,0,0,1,.294,1.125v.01a.1.1,0,0,1-.028.077.084.084,0,0,1-.067.028l-.734.039c-.064,0-.1-.021-.1-.059v-.059a1.334,1.334,0,0,0-.386-1,1.6,1.6,0,0,0-2.07,0,1.328,1.328,0,0,0-.391,1v2.579a1.328,1.328,0,0,0,.391,1,1.429,1.429,0,0,0,1.037.378,1.412,1.412,0,0,0,1.032-.378,1.334,1.334,0,0,0,.386-1v-.021c0-.059.031-.088.1-.088l.734.039c.064,0,.1.015.1.049v.049a2.156,2.156,0,0,1-.294,1.13,2.006,2.006,0,0,1-.826.762,2.9,2.9,0,0,1-2.456-.005Z" transform="translate(-534.011 -158.265)" fill="#24272a"/>
      <path id="Path_66" data-name="Path 66" d="M601.332,167.576h-3.426a.034.034,0,0,0-.039.039V169.7a.034.034,0,0,0,.039.039h2.356a.087.087,0,0,1,.1.1v.61a.087.087,0,0,1-.1.1h-2.356a.034.034,0,0,0-.039.039v2.134a.034.034,0,0,0,.039.039h3.426a.085.085,0,0,1,.1.1v.61a.085.085,0,0,1-.1.1h-4.3a.085.085,0,0,1-.1-.1v-6.6a.085.085,0,0,1,.1-.1h4.3a.085.085,0,0,1,.1.1v.61A.083.083,0,0,1,601.332,167.576Z" transform="translate(-551.439 -158.481)" fill="#24272a"/>
    </g>
  </g>
</svg>
