<svg xmlns="http://www.w3.org/2000/svg" width="89.776" height="24.375" viewBox="0 0 89.776 24.375"><defs><style>.a{fill:#ea0029;}.b{fill:#fff;}</style></defs><g transform="translate(-213.51 -366.93)"><g transform="translate(213.51 366.93)"><g transform="translate(0 0.004)"><path class="a" d="M318.3,377.392a10.661,10.661,0,0,1-10.84,10.444,9.982,9.982,0,0,1-7.932-3.332,10.655,10.655,0,0,1-2.908-7.11,10.108,10.108,0,0,1,3.129-7.236,10.352,10.352,0,0,1,7.712-3.209,10.194,10.194,0,0,1,7.789,3.263A10.3,10.3,0,0,1,318.3,377.392Zm-7.87,0q0-2.3-.1-3.944a27.682,27.682,0,0,0-.364-3.181,4.483,4.483,0,0,0-.822-2.166,2.148,2.148,0,0,0-1.69-.625,2.177,2.177,0,0,0-1.66.653,3.725,3.725,0,0,0-.837,1.986q-.221,1.334-.348,3.334t-.125,3.945q0,2.139.11,3.875a32.586,32.586,0,0,0,.364,3.263,4.4,4.4,0,0,0,.8,2.153,2.145,2.145,0,0,0,1.69.625,2.177,2.177,0,0,0,1.66-.653,3.64,3.64,0,0,0,.822-1.971q.2-1.318.348-3.417T310.431,377.392Z" transform="translate(-278.637 -366.95)"/><path class="a" d="M230.872,396.5a10.414,10.414,0,0,0-6.344-2.367,16.863,16.863,0,0,0-4.7.541,8,8,0,0,0-3.326,2.014l1.069-4.812h-1.16l-1.638,7.441,1.03.065a5.436,5.436,0,0,1,.476-1.244,8.419,8.419,0,0,1,1.426-1.7,4.59,4.59,0,0,1,3.375-1.114,3.71,3.71,0,0,1,3.587,2.426,13.465,13.465,0,0,1,1.1,5.6,12.306,12.306,0,0,1-.885,4.981,3.317,3.317,0,0,1-3.343,2,3.5,3.5,0,0,1-1.426-.312.986.986,0,0,1-.705-.9c0-.283.348-.775,1.049-1.474a3.639,3.639,0,0,0,1.049-2.687,3.129,3.129,0,0,0-1.244-2.605,4.818,4.818,0,0,0-3.047-.967,3.721,3.721,0,0,0-2.588,1.015,3.139,3.139,0,0,0-1.114,2.391,5.24,5.24,0,0,0,2.276,4.343,9.493,9.493,0,0,0,5.881,1.72,15.142,15.142,0,0,0,8.372-2.326,7.368,7.368,0,0,0,3.62-6.554A6.546,6.546,0,0,0,230.872,396.5Z" transform="translate(-213.51 -386.486)"/></g><g transform="translate(3.14 0)"><path class="b" d="M231.816,367.919a.1.1,0,0,1-.071.026h-1.809a.052.052,0,0,0-.048.037l-.125.578c-.007.026,0,.037.028.037h1.125a.064.064,0,0,1,.056.026.08.08,0,0,1,.009.069l-.18.816a.122.122,0,0,1-.039.069.1.1,0,0,1-.071.026h-1.125a.037.037,0,0,0-.041.037l-.348,1.6a.125.125,0,0,1-.041.069.111.111,0,0,1-.076.026H228.1a.072.072,0,0,1-.063-.026.081.081,0,0,1-.009-.069l.926-4.211a.122.122,0,0,1,.039-.069.1.1,0,0,1,.071-.026h2.9a.064.064,0,0,1,.056.026.081.081,0,0,1,.009.069l-.18.822A.125.125,0,0,1,231.816,367.919Z" transform="translate(-228.024 -366.93)"/><path class="b" d="M244.356,371.305a.081.081,0,0,1-.009-.069l.926-4.211a.122.122,0,0,1,.039-.069.1.1,0,0,1,.071-.026h.961a.072.072,0,0,1,.063.026.081.081,0,0,1,.009.069l-.92,4.211a.125.125,0,0,1-.041.069.111.111,0,0,1-.076.026h-.961A.074.074,0,0,1,244.356,371.305Z" transform="translate(-240.812 -366.93)"/><path class="b" d="M256.346,367.919a.1.1,0,0,1-.071.026h-1.809a.052.052,0,0,0-.048.037l-.126.578c-.006.026,0,.037.028.037h1.125a.064.064,0,0,1,.056.026.08.08,0,0,1,.009.069l-.18.816a.122.122,0,0,1-.039.069.1.1,0,0,1-.071.026H254.1a.037.037,0,0,0-.041.037l-.348,1.6a.125.125,0,0,1-.041.069.111.111,0,0,1-.076.026h-.961a.072.072,0,0,1-.063-.026.081.081,0,0,1-.009-.069l.926-4.211a.122.122,0,0,1,.039-.069.1.1,0,0,1,.071-.026h2.9a.064.064,0,0,1,.056.026.081.081,0,0,1,.009.069l-.18.822A.1.1,0,0,1,256.346,367.919Z" transform="translate(-247.246 -366.93)"/><path class="b" d="M275.9,366.966a.081.081,0,0,1,.009.069l-.18.829a.122.122,0,0,1-.039.069.1.1,0,0,1-.071.026H274.6a.052.052,0,0,0-.048.037l-.708,3.248a.124.124,0,0,1-.041.069.111.111,0,0,1-.076.026h-.961a.072.072,0,0,1-.063-.026.081.081,0,0,1-.009-.069l.714-3.248c0-.026-.007-.037-.028-.037H272.4a.071.071,0,0,1-.063-.026.08.08,0,0,1-.009-.069l.18-.829a.125.125,0,0,1,.041-.069.111.111,0,0,1,.076-.026h3.224A.066.066,0,0,1,275.9,366.966Z" transform="translate(-262.738 -366.938)"/><path class="b" d="M291.209,371.31a.081.081,0,0,1-.009-.069l.3-1.383a.108.108,0,0,0,0-.05l-.634-2.746a.066.066,0,0,1,0-.037.078.078,0,0,1,.089-.076H292a.083.083,0,0,1,.093.076l.247,1.489q.01.026.026.026c.011,0,.019-.009.024-.026l.9-1.489a.141.141,0,0,1,.126-.076h1.056c.05,0,.074.019.069.056a.151.151,0,0,1-.024.056l-1.854,2.746a.15.15,0,0,0-.024.05l-.3,1.383a.125.125,0,0,1-.041.069.1.1,0,0,1-.069.026h-.961A.077.077,0,0,1,291.209,371.31Z" transform="translate(-277.266 -366.946)"/></g></g><g transform="translate(258.23 371.015)"><path class="b" d="M420.19,391.726v-5.544a.072.072,0,0,1,.08-.082h.617a.072.072,0,0,1,.08.082V391.1a.029.029,0,0,0,.032.032h2.8a.072.072,0,0,1,.08.082v.513a.073.073,0,0,1-.08.082H420.27C420.216,391.808,420.19,391.78,420.19,391.726Z" transform="translate(-420.19 -386.037)"/><path class="b" d="M442.252,391.639a1.692,1.692,0,0,1-.7-.66A1.891,1.891,0,0,1,441.3,390v-3.815a.072.072,0,0,1,.08-.082H442a.073.073,0,0,1,.082.082v3.83a1.141,1.141,0,0,0,.338.857,1.217,1.217,0,0,0,.881.327,1.2,1.2,0,0,0,.876-.327,1.147,1.147,0,0,0,.333-.857v-3.83a.072.072,0,0,1,.08-.082h.617a.072.072,0,0,1,.08.082V390a1.931,1.931,0,0,1-.247.982,1.667,1.667,0,0,1-.7.66,2.47,2.47,0,0,1-2.088,0Z" transform="translate(-436.732 -386.037)"/><path class="b" d="M463.806,391.77a.065.065,0,0,1,.009-.069l1.67-2.731a.042.042,0,0,0,0-.05l-1.67-2.731a.122.122,0,0,1-.015-.05c0-.032.024-.05.074-.05h.673a.123.123,0,0,1,.1.056l1.307,2.159a.037.037,0,0,0,.048,0l1.307-2.159a.112.112,0,0,1,.1-.056h.664a.067.067,0,0,1,.065.028.065.065,0,0,1-.009.069l-1.664,2.739a.1.1,0,0,0,0,.05l1.664,2.722a.122.122,0,0,1,.015.05c0,.032-.024.05-.074.05H467.4a.117.117,0,0,1-.1-.056L466,389.591a.025.025,0,0,0-.048,0l-1.307,2.151a.115.115,0,0,1-.1.056h-.673A.063.063,0,0,1,463.806,391.77Z" transform="translate(-454.363 -386.029)"/><path class="b" d="M488.932,391.639a1.692,1.692,0,0,1-.7-.66,1.891,1.891,0,0,1-.251-.982v-3.815a.072.072,0,0,1,.08-.082h.617a.073.073,0,0,1,.082.082v3.83a1.141,1.141,0,0,0,.338.857,1.217,1.217,0,0,0,.881.327,1.2,1.2,0,0,0,.876-.327,1.147,1.147,0,0,0,.333-.857v-3.83a.072.072,0,0,1,.08-.082h.617a.072.072,0,0,1,.08.082V390a1.931,1.931,0,0,1-.247.982,1.667,1.667,0,0,1-.7.66,2.47,2.47,0,0,1-2.088,0Z" transform="translate(-473.312 -386.037)"/><path class="b" d="M515.436,391.75l-1.136-2.436a.032.032,0,0,0-.032-.024H513.1a.029.029,0,0,0-.032.032v2.4a.073.073,0,0,1-.08.082h-.617a.072.072,0,0,1-.08-.082v-5.544a.072.072,0,0,1,.08-.082h2.183a1.743,1.743,0,0,1,.857.2,1.423,1.423,0,0,1,.571.571,1.738,1.738,0,0,1,.2.848,1.562,1.562,0,0,1-.3.965,1.452,1.452,0,0,1-.824.534c-.022.011-.028.024-.015.041l1.177,2.445a.106.106,0,0,1,.009.041c0,.039-.022.056-.065.056h-.64A.086.086,0,0,1,515.436,391.75Zm-2.369-4.938v1.826a.029.029,0,0,0,.032.032h1.354a.942.942,0,0,0,.69-.257.915.915,0,0,0,.26-.682.9.9,0,0,0-.95-.954H513.1C513.078,386.777,513.067,386.788,513.067,386.812Z" transform="translate(-492.362 -386.037)"/><path class="b" d="M534.485,391.725v-2.289c0-.022,0-.035-.009-.041l-1.688-3.187a.107.107,0,0,1-.009-.041c0-.039.022-.056.065-.056h.664a.1.1,0,0,1,.1.056l1.242,2.389a.026.026,0,0,0,.048,0l1.242-2.389a.094.094,0,0,1,.1-.056h.673a.069.069,0,0,1,.061.028.059.059,0,0,1,0,.069l-1.7,3.187a.071.071,0,0,0-.009.041v2.289a.073.073,0,0,1-.08.082h-.617A.072.072,0,0,1,534.485,391.725Z" transform="translate(-508.418 -386.045)"/><path class="b" d="M564.256,391.421a1.686,1.686,0,0,1-.7-.66,1.931,1.931,0,0,1-.247-.982v-2.112a1.883,1.883,0,0,1,.247-.974,1.682,1.682,0,0,1,.7-.651,2.214,2.214,0,0,1,1.034-.232,2.263,2.263,0,0,1,1.03.225,1.679,1.679,0,0,1,.695.632,1.791,1.791,0,0,1,.247.946v.009a.088.088,0,0,1-.024.065.071.071,0,0,1-.056.024l-.617.032c-.054,0-.08-.017-.08-.05v-.05a1.121,1.121,0,0,0-.325-.84,1.348,1.348,0,0,0-1.74,0,1.116,1.116,0,0,0-.329.84v2.168a1.116,1.116,0,0,0,.329.84,1.2,1.2,0,0,0,.872.318,1.187,1.187,0,0,0,.868-.318,1.121,1.121,0,0,0,.325-.84v-.017c0-.05.026-.074.08-.074l.617.032c.054,0,.08.013.08.041v.041a1.812,1.812,0,0,1-.247.95,1.686,1.686,0,0,1-.695.64,2.236,2.236,0,0,1-1.03.227A2.207,2.207,0,0,1,564.256,391.421Z" transform="translate(-532.342 -385.81)"/><path class="b" d="M588.442,391.749l-.292-.954a.032.032,0,0,0-.032-.024h-2.281a.034.034,0,0,0-.033.024l-.292.954a.1.1,0,0,1-.1.065h-.658c-.061,0-.08-.03-.065-.089l1.776-5.55a.1.1,0,0,1,.1-.065h.811a.1.1,0,0,1,.1.065l1.794,5.55.009.032c0,.039-.024.056-.074.056h-.664A.091.091,0,0,1,588.442,391.749Zm-2.43-1.61a.038.038,0,0,0,.028.013h1.865a.038.038,0,0,0,.028-.013.023.023,0,0,0,0-.028L587,387.088a.025.025,0,0,0-.024-.017.025.025,0,0,0-.024.017l-.941,3.023A.026.026,0,0,0,586.012,390.139Z" transform="translate(-549.094 -386.045)"/><path class="b" d="M613.336,391.75l-1.136-2.436a.033.033,0,0,0-.032-.024H611a.029.029,0,0,0-.032.032v2.4a.073.073,0,0,1-.08.082h-.617a.072.072,0,0,1-.08-.082v-5.544a.072.072,0,0,1,.08-.082h2.183a1.742,1.742,0,0,1,.857.2,1.423,1.423,0,0,1,.571.571,1.738,1.738,0,0,1,.2.848,1.562,1.562,0,0,1-.3.965,1.452,1.452,0,0,1-.824.534c-.022.011-.028.024-.015.041l1.177,2.445a.107.107,0,0,1,.009.041c0,.039-.022.056-.065.056h-.641A.085.085,0,0,1,613.336,391.75Zm-2.369-4.938v1.826a.029.029,0,0,0,.032.032h1.355a.943.943,0,0,0,.69-.257.915.915,0,0,0,.26-.682.9.9,0,0,0-.95-.954H611C610.978,386.777,610.967,386.788,610.967,386.812Z" transform="translate(-569.079 -386.037)"/><path class="b" d="M420.19,423.636v-5.544a.072.072,0,0,1,.08-.082h.617a.072.072,0,0,1,.08.082v5.544a.073.073,0,0,1-.08.082h-.617A.072.072,0,0,1,420.19,423.636Z" transform="translate(-420.19 -411.043)"/><path class="b" d="M433.371,418.02h.617a.072.072,0,0,1,.08.082v5.544a.073.073,0,0,1-.08.082h-.593a.117.117,0,0,1-.1-.056l-2.54-4.165c0-.017-.013-.024-.024-.019s-.015.013-.015.028l.009,4.133a.073.073,0,0,1-.08.082h-.617a.072.072,0,0,1-.08-.082V418.1a.072.072,0,0,1,.08-.082h.6a.117.117,0,0,1,.1.056l2.532,4.165c0,.015.013.024.024.019s.017-.013.017-.028l-.009-4.133A.07.07,0,0,1,433.371,418.02Z" transform="translate(-427.838 -411.051)"/><path class="b" d="M454.812,423.343a1.59,1.59,0,0,1-.705-.554,1.448,1.448,0,0,1-.247-.84v-.236a.072.072,0,0,1,.08-.082h.593a.073.073,0,0,1,.082.082v.195a.819.819,0,0,0,.357.684,1.6,1.6,0,0,0,.982.268,1.291,1.291,0,0,0,.844-.236.769.769,0,0,0,.283-.619.666.666,0,0,0-.145-.433,1.429,1.429,0,0,0-.426-.331,8.653,8.653,0,0,0-.816-.364,7.9,7.9,0,0,1-.937-.415,1.75,1.75,0,0,1-.571-.493,1.256,1.256,0,0,1-.227-.77,1.329,1.329,0,0,1,.5-1.1,2.1,2.1,0,0,1,1.35-.4,2.544,2.544,0,0,1,1.054.2,1.621,1.621,0,0,1,.7.571,1.485,1.485,0,0,1,.247.848v.162a.072.072,0,0,1-.08.082h-.608a.073.073,0,0,1-.082-.082v-.121a.881.881,0,0,0-.338-.705,1.4,1.4,0,0,0-.928-.281,1.273,1.273,0,0,0-.779.208.7.7,0,0,0-.275.6.667.667,0,0,0,.138.439,1.181,1.181,0,0,0,.409.305c.182.089.459.206.831.346a8.924,8.924,0,0,1,.933.42,1.791,1.791,0,0,1,.593.506,1.272,1.272,0,0,1,.236.779,1.379,1.379,0,0,1-.524,1.136,2.245,2.245,0,0,1-1.441.42A2.652,2.652,0,0,1,454.812,423.343Z" transform="translate(-446.575 -410.8)"/><path class="b" d="M477.912,423.549a1.692,1.692,0,0,1-.7-.66,1.891,1.891,0,0,1-.251-.982v-3.815a.072.072,0,0,1,.08-.082h.617a.073.073,0,0,1,.082.082v3.83a1.141,1.141,0,0,0,.338.857,1.217,1.217,0,0,0,.881.327,1.2,1.2,0,0,0,.876-.327,1.147,1.147,0,0,0,.333-.857v-3.83a.072.072,0,0,1,.08-.082h.617a.072.072,0,0,1,.08.082v3.815a1.931,1.931,0,0,1-.247.982,1.667,1.667,0,0,1-.7.66,2.231,2.231,0,0,1-1.043.232A2.208,2.208,0,0,1,477.912,423.549Z" transform="translate(-464.676 -411.043)"/><path class="b" d="M504.406,423.66l-1.136-2.436a.033.033,0,0,0-.032-.024h-1.168a.029.029,0,0,0-.032.032v2.4a.073.073,0,0,1-.08.082h-.617a.072.072,0,0,1-.08-.082v-5.544a.072.072,0,0,1,.08-.082h2.183a1.742,1.742,0,0,1,.857.2,1.423,1.423,0,0,1,.571.571,1.738,1.738,0,0,1,.2.848,1.562,1.562,0,0,1-.3.965,1.452,1.452,0,0,1-.824.534c-.022.011-.028.024-.015.041l1.177,2.445a.106.106,0,0,1,.009.041c0,.039-.022.056-.065.056h-.64A.087.087,0,0,1,504.406,423.66Zm-2.369-4.938v1.826a.029.029,0,0,0,.032.032h1.354a.943.943,0,0,0,.69-.257.915.915,0,0,0,.26-.682.9.9,0,0,0-.95-.954h-1.354C502.048,418.687,502.037,418.7,502.037,418.722Z" transform="translate(-483.719 -411.043)"/><path class="b" d="M527.212,423.659l-.292-.954a.032.032,0,0,0-.032-.024h-2.281a.034.034,0,0,0-.032.024l-.292.954a.1.1,0,0,1-.1.065h-.658c-.061,0-.08-.03-.065-.089l1.776-5.55a.1.1,0,0,1,.1-.065h.811a.1.1,0,0,1,.1.065l1.794,5.55.009.032c0,.039-.024.056-.074.056h-.664A.092.092,0,0,1,527.212,423.659Zm-2.43-1.608a.038.038,0,0,0,.028.013h1.865a.038.038,0,0,0,.028-.013.023.023,0,0,0,0-.028L525.767,419a.025.025,0,0,0-.048,0l-.941,3.023A.023.023,0,0,0,524.782,422.051Z" transform="translate(-501.113 -411.051)"/><path class="b" d="M552.381,418.02H553a.072.072,0,0,1,.08.082v5.544a.073.073,0,0,1-.08.082H552.4a.117.117,0,0,1-.1-.056l-2.54-4.165c0-.017-.013-.024-.024-.019s-.015.013-.015.028l.009,4.133a.073.073,0,0,1-.08.082h-.617a.072.072,0,0,1-.08-.082V418.1a.072.072,0,0,1,.08-.082h.6a.117.117,0,0,1,.1.056l2.532,4.165c0,.015.013.024.024.019s.017-.013.017-.028L552.3,418.1C552.3,418.046,552.327,418.02,552.381,418.02Z" transform="translate(-521.097 -411.051)"/><path class="b" d="M574.416,423.331a1.686,1.686,0,0,1-.7-.66,1.931,1.931,0,0,1-.247-.982v-2.112a1.882,1.882,0,0,1,.247-.974,1.682,1.682,0,0,1,.7-.651,2.214,2.214,0,0,1,1.034-.232,2.263,2.263,0,0,1,1.03.225,1.679,1.679,0,0,1,.695.632,1.791,1.791,0,0,1,.247.946v.009a.088.088,0,0,1-.024.065.071.071,0,0,1-.056.024l-.617.032c-.054,0-.08-.017-.08-.05v-.05a1.121,1.121,0,0,0-.325-.84,1.348,1.348,0,0,0-1.74,0,1.116,1.116,0,0,0-.329.84v2.168a1.116,1.116,0,0,0,.329.84,1.2,1.2,0,0,0,.872.318,1.187,1.187,0,0,0,.868-.318,1.121,1.121,0,0,0,.325-.84V421.7c0-.05.026-.074.08-.074l.617.032c.054,0,.08.013.08.041v.041a1.812,1.812,0,0,1-.247.95,1.686,1.686,0,0,1-.695.64,2.437,2.437,0,0,1-2.064,0Z" transform="translate(-540.304 -410.815)"/><path class="b" d="M600.631,418.687h-2.88a.029.029,0,0,0-.032.032v1.753a.029.029,0,0,0,.032.032h1.98a.073.073,0,0,1,.082.082v.513a.073.073,0,0,1-.082.082h-1.98a.029.029,0,0,0-.032.032v1.794a.029.029,0,0,0,.032.032h2.88a.072.072,0,0,1,.08.082v.513a.072.072,0,0,1-.08.082H597.02a.072.072,0,0,1-.08-.082v-5.544a.072.072,0,0,1,.08-.082h3.611a.072.072,0,0,1,.08.082v.513A.07.07,0,0,1,600.631,418.687Z" transform="translate(-558.696 -411.043)"/></g></g></svg>